<svg width="14" height="8" viewBox="0 0 14 8" fill="none" xmlns="http://www.w3.org/2000/svg">
<path d="M0.999996 1.175C1.08371 1.0847 1.18439 1.01178 1.29628 0.960403C1.40818 0.909023 1.5291 0.880188 1.65214 0.875545C1.77518 0.870902 1.89793 0.890542 2.01338 0.933343C2.12883 0.976144 2.23472 1.04127 2.325 1.125L7 5.53375L11.675 1.125C11.7653 1.04128 11.8712 0.976163 11.9866 0.933368C12.1021 0.890573 12.2248 0.870936 12.3479 0.875579C12.4709 0.880222 12.5918 0.909054 12.7037 0.960428C12.8156 1.0118 12.9163 1.08471 13 1.175C13.0837 1.26528 13.1488 1.37117 13.1916 1.48662C13.2344 1.60207 13.2541 1.72481 13.2494 1.84785C13.2448 1.97089 13.2159 2.09181 13.1646 2.2037C13.1132 2.3156 13.0403 2.41628 12.95 2.5L7.6375 7.5C7.46414 7.66077 7.23643 7.75011 7 7.75011C6.76356 7.75011 6.53585 7.66077 6.3625 7.5L1.05 2.5C0.959702 2.41628 0.886783 2.31561 0.835403 2.20371C0.784023 2.09181 0.755188 1.97089 0.750545 1.84785C0.745902 1.72481 0.765542 1.60206 0.808343 1.48661C0.851144 1.37116 0.916268 1.26527 0.999996 1.175Z" fill="white"/>
</svg>
