<svg width="80" height="81" viewBox="0 0 80 81" fill="none" xmlns="http://www.w3.org/2000/svg">
<rect y="0.311523" width="80" height="80" rx="8" fill="#3D2E28"/>
<g clip-path="url(#clip0_1_928)">
<path d="M27.5 27.8115H44.1667C45.8243 27.8115 47.414 28.47 48.5861 29.6421C49.7582 30.8142 50.4167 32.4039 50.4167 34.0615C50.4167 35.7191 49.7582 37.3088 48.5861 38.4809C47.414 39.653 45.8243 40.3115 44.1667 40.3115C45.8243 40.3115 47.414 40.97 48.5861 42.1421C49.7582 43.3142 50.4167 44.9039 50.4167 46.5615C50.4167 48.2191 49.7582 49.8088 48.5861 50.9809C47.414 52.153 45.8243 52.8115 44.1667 52.8115H27.5" stroke="white" stroke-width="2" stroke-linecap="round" stroke-linejoin="round"/>
<path d="M31.6667 27.8115V52.8115" stroke="white" stroke-width="2" stroke-linecap="round" stroke-linejoin="round"/>
<path d="M31.6667 40.3115H44.1667" stroke="white" stroke-width="2" stroke-linecap="round" stroke-linejoin="round"/>
<path d="M33.75 21.5615V27.8115" stroke="white" stroke-width="2" stroke-linecap="round" stroke-linejoin="round"/>
<path d="M42.0833 21.5615V27.8115" stroke="white" stroke-width="2" stroke-linecap="round" stroke-linejoin="round"/>
<path d="M33.75 52.8115V59.0615" stroke="white" stroke-width="2" stroke-linecap="round" stroke-linejoin="round"/>
<path d="M42.0833 52.8115V59.0615" stroke="white" stroke-width="2" stroke-linecap="round" stroke-linejoin="round"/>
</g>
<defs>
<clipPath id="clip0_1_928">
<rect width="50" height="50" fill="white" transform="translate(15 15.3115)"/>
</clipPath>
</defs>
</svg>
