<svg width="80" height="81" viewBox="0 0 80 81" fill="none" xmlns="http://www.w3.org/2000/svg">
<rect y="0.772034" width="80" height="80" rx="8" fill="#2C4D54"/>
<g clip-path="url(#clip0_1_874)">
<path d="M44.0938 56.5845V47.397C44.0938 46.9909 43.9324 46.6014 43.6453 46.3143C43.3581 46.0271 42.9686 45.8658 42.5625 45.8658H36.4375C36.0314 45.8658 35.6419 46.0271 35.3547 46.3143C35.0676 46.6014 34.9062 46.9909 34.9062 47.397V56.5845C34.9062 56.9906 34.7449 57.3801 34.4578 57.6673C34.1706 57.9544 33.7811 58.1158 33.375 58.1158H24.1875C23.7814 58.1158 23.3919 57.9544 23.1047 57.6673C22.8176 57.3801 22.6562 56.9906 22.6562 56.5845V38.8794C22.6597 38.6675 22.7055 38.4584 22.7909 38.2645C22.8764 38.0705 22.9998 37.8957 23.1539 37.7501L38.4664 23.8349C38.7487 23.5767 39.1174 23.4334 39.5 23.4334C39.8826 23.4334 40.2513 23.5767 40.5336 23.8349L55.8461 37.7501C56.0002 37.8957 56.1236 38.0705 56.2091 38.2645C56.2945 38.4584 56.3403 38.6675 56.3438 38.8794V56.5845C56.3438 56.9906 56.1824 57.3801 55.8953 57.6673C55.6081 57.9544 55.2186 58.1158 54.8125 58.1158H45.625C45.2189 58.1158 44.8294 57.9544 44.5422 57.6673C44.2551 57.3801 44.0938 56.9906 44.0938 56.5845Z" stroke="white" stroke-width="1.53125" stroke-linecap="round" stroke-linejoin="round"/>
</g>
<defs>
<clipPath id="clip0_1_874">
<rect width="49" height="49" fill="white" transform="translate(15 16.772)"/>
</clipPath>
</defs>
</svg>
