<svg width="80" height="81" viewBox="0 0 80 81" fill="none" xmlns="http://www.w3.org/2000/svg">
<rect y="0.352722" width="80" height="80" rx="8" fill="#5B2C2B"/>
<g clip-path="url(#clip0_1_986)">
<path d="M50.4167 53.8944C48.7825 54.6434 47.006 55.0311 45.2083 55.0311C43.4107 55.0311 41.6342 54.6434 40 53.8944C38.2916 53.3046 36.4757 53.0924 34.6774 53.2722C32.879 53.452 31.1411 54.0197 29.5833 54.936C30.6988 54.5499 31.6821 53.8559 32.4195 52.9341C33.1569 52.0124 33.6182 50.9007 33.75 49.7277V34.1027C33.761 32.2776 34.3709 30.5065 35.486 29.0616C36.6011 27.6166 38.1598 26.5778 39.9225 26.1046C41.6853 25.6313 43.5547 25.7499 45.2435 26.4421C46.9324 27.1343 48.3472 28.3618 49.2708 29.936M43.9583 42.436H29.375" stroke="white" stroke-width="2" stroke-linecap="round" stroke-linejoin="round"/>
</g>
<defs>
<clipPath id="clip0_1_986">
<rect width="50" height="50" fill="white" transform="translate(15 15.3527)"/>
</clipPath>
</defs>
</svg>
