<svg width="80" height="81" viewBox="0 0 80 81" fill="none" xmlns="http://www.w3.org/2000/svg">
<rect y="0.187897" width="80" height="80" rx="8" fill="#2A4628"/>
<g clip-path="url(#clip0_1_888)">
<path d="M49.4941 31.2593C49.0794 30.0827 48.3221 29.0572 47.3197 28.3146C46.3172 27.572 45.1155 27.1465 43.8691 27.0927H35.5358C33.8782 27.0927 32.2885 27.7511 31.1163 28.9232C29.9442 30.0953 29.2858 31.6851 29.2858 33.3427C29.2858 35.0003 29.9442 36.59 31.1163 37.7621C32.2885 38.9342 33.8782 39.5927 35.5358 39.5927H43.8691C45.5267 39.5927 47.1164 40.2511 48.2885 41.4232C49.4606 42.5953 50.1191 44.1851 50.1191 45.8427C50.1191 47.5003 49.4606 49.09 48.2885 50.2621C47.1164 51.4342 45.5267 52.0927 43.8691 52.0927H35.5358C34.2894 52.0388 33.0877 51.6133 32.0852 50.8707C31.0827 50.1281 30.3254 49.1026 29.9108 47.926" stroke="white" stroke-width="3.5" stroke-linecap="round" stroke-linejoin="round"/>
<path d="M40 21.1403V27.3903M40 52.3903V58.6403" stroke="white" stroke-width="3.5" stroke-linecap="round" stroke-linejoin="round"/>
</g>
<defs>
<clipPath id="clip0_1_888">
<rect width="50" height="50" fill="white" transform="translate(15 15.1879)"/>
</clipPath>
</defs>
</svg>
